<svg width="36" height="36" viewBox="0 0 36 36" fill="none" xmlns="http://www.w3.org/2000/svg">
<g id="vuesax/bold/archive-tick">
<g id="archive-tick">
<path id="Vector" d="M25.23 2.86499H10.77C7.58998 2.86499 4.97998 5.47499 4.97998 8.65499V29.79C4.97998 32.49 6.91498 33.63 9.28498 32.325L16.605 28.26C17.385 27.825 18.645 27.825 19.41 28.26L26.73 32.325C29.1 33.645 31.035 32.505 31.035 29.79V8.65499C31.02 5.47499 28.425 2.86499 25.23 2.86499ZM23.43 13.545L17.43 19.545C17.205 19.77 16.92 19.875 16.635 19.875C16.35 19.875 16.065 19.77 15.84 19.545L13.59 17.295C13.155 16.86 13.155 16.14 13.59 15.705C14.025 15.27 14.745 15.27 15.18 15.705L16.635 17.16L21.84 11.955C22.275 11.52 22.995 11.52 23.43 11.955C23.865 12.39 23.865 13.11 23.43 13.545Z" fill="#D9D9D9"/>
</g>
</g>
</svg>
