<svg width="48" height="48" viewBox="0 0 48 48" fill="none" xmlns="http://www.w3.org/2000/svg">
<g id="vuesax/bold/archive-tick">
<g id="archive-tick">
<path id="Vector" d="M33.64 3.81995H14.36C10.12 3.81995 6.64001 7.29995 6.64001 11.5399V39.7199C6.64001 43.3199 9.22001 44.8399 12.38 43.0999L22.14 37.6799C23.18 37.0999 24.86 37.0999 25.88 37.6799L35.64 43.0999C38.8 44.8599 41.38 43.3399 41.38 39.7199V11.5399C41.36 7.29995 37.9 3.81995 33.64 3.81995ZM31.24 18.0599L23.24 26.0599C22.94 26.3599 22.56 26.4999 22.18 26.4999C21.8 26.4999 21.42 26.3599 21.12 26.0599L18.12 23.0599C17.54 22.4799 17.54 21.5199 18.12 20.9399C18.7 20.3599 19.66 20.3599 20.24 20.9399L22.18 22.8799L29.12 15.9399C29.7 15.3599 30.66 15.3599 31.24 15.9399C31.82 16.5199 31.82 17.4799 31.24 18.0599Z" fill="#1A9ADA"/>
</g>
</g>
</svg>
