<svg width="32" height="32" viewBox="0 0 32 32" fill="none" xmlns="http://www.w3.org/2000/svg">
<g id="vuesax/bold/box-2">
<g id="box-2">
<path id="Vector" d="M7.10658 25.8933C6.95991 25.8933 6.79991 25.8533 6.66658 25.7867L3.70658 24.3067C3.37325 24.1333 3.15991 23.7867 3.15991 23.4133V19.7067C3.15991 19.16 3.61325 18.7067 4.15991 18.7067C4.70658 18.7067 5.15991 19.16 5.15991 19.7067V22.7867L7.55991 24C8.05325 24.24 8.25325 24.84 7.99991 25.3333C7.82658 25.68 7.47991 25.8933 7.10658 25.8933Z" fill="#121212"/>
<path id="Vector_2" d="M16 30.3333C15.92 30.3333 15.84 30.32 15.7734 30.3066C15.6934 30.2933 15.6134 30.2533 15.5334 30.2133L12.5867 28.7466C12.0934 28.4933 11.8934 27.8933 12.1334 27.4C12.3867 26.9066 12.9867 26.7066 13.48 26.9466L15 27.7067V25.6266C15 25.08 15.4534 24.6266 16 24.6266C16.5467 24.6266 17 25.08 17 25.6266V27.7067L18.52 26.9466C19.0134 26.7066 19.6134 26.9066 19.8667 27.4C20.12 27.8933 19.92 28.4933 19.4134 28.7466L16.4667 30.2133C16.3867 30.2533 16.3067 30.28 16.2267 30.3066C16.1467 30.32 16.08 30.3333 16 30.3333Z" fill="#121212"/>
<path id="Vector_3" d="M24.8933 25.8933C24.5333 25.8933 24.1733 25.6933 24 25.3466C23.7467 24.8533 23.9467 24.2533 24.4533 24L26.8667 22.8V19.72C26.8667 19.1733 27.32 18.72 27.8667 18.72C28.4133 18.72 28.8667 19.1733 28.8667 19.72V23.4266C28.8667 23.8 28.6533 24.1466 28.32 24.32L25.3333 25.7866C25.1867 25.8533 25.04 25.8933 24.8933 25.8933Z" fill="#121212"/>
<path id="Vector_4" d="M16 19.2267C15.4534 19.2267 15 18.7733 15 18.2267V15.1467L12.5867 13.9467C12.0934 13.6933 11.8934 13.0933 12.1334 12.6C12.3867 12.1067 12.9867 11.9067 13.48 12.1467L16 13.4L18.52 12.1467C19.0134 11.9067 19.6134 12.0933 19.8667 12.6C20.12 13.0933 19.92 13.6933 19.4134 13.9467L17 15.1467V18.2267C17 18.7733 16.5467 19.2267 16 19.2267Z" fill="#121212"/>
<path id="Vector_5" d="M4.14673 13.2933C3.60006 13.2933 3.14673 12.84 3.14673 12.2933V8.61332V8.59999C3.14673 8.51999 3.16006 8.43999 3.1734 8.37332C3.20006 8.25332 3.24006 8.15999 3.2934 8.06665C3.3334 7.99999 3.38673 7.94665 3.44006 7.89332C3.4934 7.83999 3.56006 7.78665 3.62673 7.74665C3.6534 7.73332 3.6934 7.70665 3.72006 7.69332L6.66673 6.21332C7.16006 5.97332 7.76006 6.17332 8.00006 6.66665C8.2534 7.15999 8.0534 7.75999 7.56006 7.99999L6.38673 8.58665L7.56006 9.17332C8.0534 9.42665 8.2534 10.0267 8.00006 10.52C7.76006 11.0133 7.16006 11.2133 6.66673 10.9733L5.14673 10.2133V12.2933C5.14673 12.8533 4.70673 13.2933 4.14673 13.2933Z" fill="#121212"/>
<path id="Vector_6" d="M18.9599 5.14666C18.8132 5.14666 18.6532 5.10666 18.5199 5.04L15.9999 3.78666L13.4799 5.04C12.9866 5.29333 12.3866 5.09333 12.1466 4.6C11.8932 4.10666 12.0932 3.50666 12.5866 3.25333L15.5466 1.77333C15.8266 1.62666 16.1599 1.62666 16.4399 1.77333L19.3999 3.25333C19.8932 3.50666 20.0932 4.10666 19.8532 4.6C19.6799 4.94666 19.3332 5.14666 18.9599 5.14666Z" fill="#121212"/>
<path id="Vector_7" d="M27.8534 13.2933C27.3068 13.2933 26.8534 12.84 26.8534 12.2933V10.2133L25.3334 10.9733C24.8401 11.2133 24.2401 11.0133 24.0001 10.52C23.7468 10.0267 23.9468 9.42665 24.4534 9.17332L25.6268 8.58665L24.4401 7.99999C23.9468 7.75999 23.7468 7.15999 24.0001 6.66665C24.2534 6.17332 24.8401 5.97332 25.3334 6.21332L28.2801 7.67999C28.3068 7.69332 28.3468 7.70665 28.3734 7.73332C28.4534 7.77332 28.5201 7.83999 28.5868 7.90665C28.6268 7.95999 28.6668 8.01332 28.7068 8.06665C28.7601 8.15999 28.8001 8.25332 28.8268 8.35999C28.8401 8.43999 28.8534 8.51999 28.8534 8.58665V8.59999V12.28C28.8534 12.8533 28.4001 13.2933 27.8534 13.2933Z" fill="#121212"/>
</g>
</g>
</svg>
