<svg width="122" height="40" viewBox="0 0 122 40" fill="none" xmlns="http://www.w3.org/2000/svg">
<g id="Frame" clip-path="url(#clip0_5_6)">
<g id="Group">
<g id="Group_2">
<g id="Group_3">
<path id="Vector" d="M44.4976 22.0379L44.5257 17.4561C44.5257 15.0668 45.2284 13.2959 46.6058 12.1434C48.0394 10.9909 49.8946 10.4287 52.1153 10.4568C53.5489 10.4568 54.8138 10.7098 55.9382 11.1595C57.0626 11.6655 57.9059 12.3401 58.468 13.2115C59.0302 13.9986 59.3676 15.0949 59.3957 16.5285L56.6971 16.3879C56.6409 15.2073 56.2474 14.2797 55.5165 13.6332C54.6451 12.9866 53.5207 12.6774 52.1153 12.6493C50.5692 12.6493 49.3605 13.0148 48.4891 13.7737C47.6739 14.5046 47.2523 15.7414 47.2242 17.5123V22.1223C47.1961 25.2706 48.8264 26.8447 52.059 26.8447C53.4926 26.8447 54.6451 26.5636 55.4884 25.9452C56.2755 25.3268 56.669 24.4835 56.669 23.4715V23.078L59.3113 23.1061V23.4996C59.3113 25.1862 58.6086 26.5917 57.2593 27.6599C55.7976 28.6437 54.0548 29.1497 52.0028 29.1216C49.7259 29.1216 47.8988 28.5313 46.5215 27.3788C45.1722 26.2263 44.4976 24.4273 44.4976 22.0379Z" fill="white"/>
<path id="Vector_2" d="M63.0218 22.5158V23.0499C63.0218 24.371 63.331 25.3549 63.9775 25.9452C64.5678 26.4512 65.4673 26.7322 66.648 26.7322C67.6599 26.7322 68.447 26.5355 69.0092 26.1419C69.5151 25.7765 69.7962 25.13 69.8243 24.1743H72.3261V24.5678C72.3261 25.7765 71.792 26.8166 70.7238 27.688C69.6557 28.4188 68.2502 28.7843 66.5074 28.7843C64.7365 28.7843 63.2748 28.2783 62.0942 27.3225C61.026 26.3387 60.4919 24.877 60.4919 22.9374V20.6887C60.4919 18.8053 61.0541 17.3717 62.1504 16.3879C63.3591 15.4322 64.8208 14.9824 66.5355 14.9824C68.194 14.9824 69.6557 15.4884 70.8644 16.4441C71.9607 17.428 72.4948 18.8616 72.4666 20.7449V22.4877L63.0218 22.5158ZM63.9775 17.962L63.9494 17.9902C63.3872 18.5523 63.078 19.48 63.0499 20.7449L69.9649 20.773C69.9087 19.3956 69.6276 18.4399 69.0654 17.9339C68.3626 17.3998 67.5194 17.1469 66.5636 17.1469C65.5236 17.1469 64.6803 17.428 63.9775 17.962Z" fill="white"/>
<path id="Vector_3" d="M74.3219 15.4603H76.8517V16.5847C77.5826 16.1068 78.0604 15.8538 78.2291 15.7695C79.0443 15.4884 79.8595 15.3479 80.7028 15.3479C82.3612 15.3479 83.6543 15.7976 84.5819 16.669C85.4533 17.4561 85.8749 18.6367 85.8749 20.2389L85.8187 28.9529H83.2888L83.3451 20.4919C83.3451 19.5081 83.0921 18.7772 82.558 18.2151C81.9958 17.7091 81.2087 17.428 80.1968 17.428C79.1567 17.428 78.3415 17.681 77.7512 18.2151C77.1609 18.7491 76.8517 19.48 76.8517 20.4357L76.7955 28.8967H74.2657L74.3219 15.4603Z" fill="white"/>
<path id="Vector_4" d="M90.766 27.6599V28.8124H88.2361L88.3486 10.7098H90.8784L90.8503 16.5847C91.3001 16.2193 91.7217 15.9382 92.0872 15.7695C92.8461 15.4041 93.6613 15.2073 94.5327 15.2073C96.0225 15.2073 97.3156 15.6852 98.4399 16.6128C99.5081 17.5404 100.014 18.9459 100.014 20.8011L99.986 23.4434C99.986 25.3268 99.4519 26.7323 98.4118 27.688C97.428 28.5594 96.1631 28.981 94.617 28.981C93.2116 28.981 91.9185 28.5313 90.766 27.6599ZM97.3999 23.3872V20.9136C97.3999 19.7049 97.1469 18.8054 96.6409 18.215C96.1349 17.6247 95.3198 17.3155 94.2235 17.3155C93.0429 17.3155 92.1715 17.6529 91.6655 18.3275C91.1033 18.974 90.7941 19.8735 90.7941 21.0541V23.3029C90.7941 24.3711 91.0752 25.2425 91.6655 25.9171C92.2558 26.5636 93.1272 26.9009 94.2797 26.9009C95.3479 26.9009 96.1349 26.6198 96.6409 26.0295C97.1469 25.4673 97.3999 24.5678 97.3999 23.3872Z" fill="white"/>
<path id="Vector_5" d="M100.942 23.4715L100.97 20.8292C100.97 18.974 101.532 17.5685 102.628 16.6409C103.865 15.7414 105.355 15.2916 107.07 15.2916C108.728 15.2916 110.19 15.7695 111.398 16.6971C112.495 17.6528 113.057 19.0302 113.029 20.8854L113.001 23.5277C113.001 25.3549 112.41 26.7604 111.286 27.7723C110.162 28.6437 108.728 29.0653 106.985 29.0653C105.158 29.0653 103.696 28.6156 102.6 27.7442C101.476 26.7885 100.942 25.3549 100.942 23.4715ZM110.471 23.4434V20.9698C110.471 19.8454 110.19 18.9178 109.628 18.215C108.925 17.6528 108.053 17.3717 107.041 17.3717C106.001 17.3717 105.13 17.6247 104.427 18.1588C103.809 18.7772 103.5 19.7048 103.5 20.9136V23.3872C103.5 24.5397 103.809 25.4673 104.399 26.1701C105.102 26.676 105.973 26.9571 106.985 26.9571C107.969 26.9571 108.812 26.7322 109.515 26.2263C110.134 25.5516 110.443 24.624 110.471 23.4434Z" fill="white"/>
<path id="Vector_6" d="M118.51 17.5966L118.482 25.5798C118.482 26.0857 118.623 26.4512 118.876 26.7041C119.157 26.9571 119.578 27.0696 120.169 27.0696H121.602V29.0935H119.859C118.623 29.0935 117.667 28.7843 116.964 28.1658C116.261 27.5474 115.924 26.7041 115.924 25.636L115.98 17.5685H113.619V15.6571H115.98L116.008 12.818C116.205 12.7337 116.627 12.565 117.217 12.312C117.807 12.059 118.285 11.8623 118.595 11.7217L118.566 15.6289L121.94 15.6571V17.5685L118.51 17.5966Z" fill="white"/>
</g>
</g>
<g id="Group_4">
<path id="Vector_7" d="M38.8475 26.676C36.9079 32.1574 32.7196 36.3739 27.5474 38.5102C25.1862 39.4659 22.6283 40 19.9859 40C17.9339 40 15.9382 39.6908 14.0548 39.1005H14.0267C5.90302 36.7393 0 29.4589 0 20.1265V20.0141C0 19.6767 0 19.3394 0.0281096 19.0021C0.0281096 18.8335 0.0562193 18.6648 0.0562193 18.4961C0.590302 11.2439 4.75053 5.20028 10.9346 2.19255C10.9346 2.19255 10.9628 2.16444 10.9909 2.16444C13.6894 0.787069 16.7533 0 19.9859 0C21.532 0 23.0499 0.168658 24.5397 0.534083C28.8686 1.54603 32.7758 3.96346 35.5868 7.50527L26.0014 15.2073C25.5517 15.0668 25.0738 14.9543 24.624 14.8138C24.0618 14.6451 23.5278 14.4765 22.9656 14.3078C22.4596 14.1673 21.9817 14.0267 21.4758 13.858C20.8855 13.6894 20.2952 13.5207 19.733 13.3521C19.227 13.2115 18.721 13.071 18.215 12.9304C17.428 12.7056 16.6128 12.4526 15.8257 12.2277C15.2916 12.059 14.7576 11.9466 14.2235 11.7779C13.4926 11.5531 12.7337 11.3282 12.0028 11.1314C11.272 10.9346 10.5692 11.0471 10.3162 11.6655C10.1476 12.0871 10.1195 12.5369 10.2319 12.9866C10.5411 13.9705 10.8503 14.9824 11.1595 15.9663C11.5249 17.1469 11.8342 18.3556 12.1996 19.5362C12.5369 20.6325 12.9023 21.7569 13.2396 22.8531C13.577 23.9494 13.858 25.0457 14.1954 26.142C14.4483 26.929 14.7013 27.7442 14.9543 28.5313C15.2635 29.5994 15.5727 30.6957 15.91 31.7639C16.0506 32.2136 16.163 32.6634 16.4722 33.0569C16.922 33.5629 17.3999 33.6191 17.9621 33.3661C18.5524 33.1131 19.0021 32.6353 19.4519 32.2417C20.1546 31.5952 20.8855 30.9768 21.6163 30.3584C22.4596 29.6275 23.3029 28.8967 24.1462 28.1377C24.2305 28.0815 24.2586 28.0534 24.3148 28.0534C24.3992 28.0534 24.4554 28.1096 24.4835 28.1377C25.6641 29.0654 26.8447 29.993 28.0253 30.9487C28.0253 30.9487 28.3064 31.2017 28.8124 31.1736C28.8405 31.1736 28.8686 31.1736 28.8686 31.1455C28.8967 31.1174 28.8967 31.0611 28.8967 31.0611C28.4469 28.1096 28.2221 26.6479 28.2221 26.6479C28.2221 26.5636 27.9972 25.1862 27.9972 25.1019C27.9691 24.9332 27.8848 24.8208 27.7442 24.6803C27.2663 24.3148 26.7885 23.9775 26.3387 23.6121C25.5517 23.0218 24.371 22.0661 22.9093 20.9979C21.2509 19.7611 15.6008 15.8257 15.4041 15.2916C15.3197 15.0668 15.4041 14.9543 15.4041 14.9543C15.4041 14.9543 15.4603 14.8981 15.5727 14.87C16.0787 14.7857 21.0541 17.5123 21.2509 17.6247C21.532 17.7934 21.8974 17.9902 22.3753 18.215C22.7969 18.4399 23.3029 18.6929 23.9213 19.0021C24.0337 19.0583 24.1181 19.1145 24.2305 19.1427L26.8728 20.52C27.6318 20.9136 28.4188 21.3071 29.1778 21.7006L31.3985 22.8531C33.7597 24.09 36.149 25.2987 38.5383 26.5355C38.5664 26.5355 38.707 26.6198 38.8475 26.676Z" fill="url(#paint0_linear_5_6)"/>
</g>
</g>
</g>
<defs>
<linearGradient id="paint0_linear_5_6" x1="5.7537" y1="5.86819" x2="34.0746" y2="34.1891" gradientUnits="userSpaceOnUse">
<stop stop-color="#0DE0FD"/>
<stop offset="0.1762" stop-color="#08C1EC"/>
<stop offset="0.3624" stop-color="#05A8DE"/>
<stop offset="0.5569" stop-color="#0296D4"/>
<stop offset="0.7629" stop-color="#018BCE"/>
<stop offset="1" stop-color="#0088CC"/>
</linearGradient>
<clipPath id="clip0_5_6">
<rect width="121.911" height="40" fill="white"/>
</clipPath>
</defs>
</svg>
