<svg width="37" height="36" viewBox="0 0 37 36" fill="none" xmlns="http://www.w3.org/2000/svg">
<g id="vuesax/bold/crown">
<g id="crown">
<path id="Vector" d="M33.3333 8.56499V22.935C33.3333 27.075 29.9733 30.435 25.8333 30.435H10.8333C10.1433 30.435 9.48334 30.345 8.83834 30.165C7.90834 29.91 7.60834 28.725 8.29834 28.035L24.2433 12.09C24.5733 11.76 25.0683 11.685 25.5333 11.775C26.0133 11.865 26.5383 11.73 26.9133 11.37L30.7683 7.49999C32.1783 6.08999 33.3333 6.55499 33.3333 8.56499Z" fill="#D9D9D9"/>
<path id="Vector_2" d="M22.2933 11.04L6.58834 26.745C5.86834 27.465 4.66834 27.285 4.18834 26.385C3.63334 25.365 3.33334 24.18 3.33334 22.935V8.56503C3.33334 6.55503 4.48834 6.09003 5.89834 7.50003L9.76834 11.385C10.3533 11.955 11.3133 11.955 11.8983 11.385L17.2683 6.00003C17.8533 5.41503 18.8133 5.41503 19.3983 6.00003L22.3083 8.91003C22.8783 9.49503 22.8783 10.455 22.2933 11.04Z" fill="#D9D9D9"/>
</g>
</g>
</svg>
