<svg width="36" height="36" viewBox="0 0 36 36" fill="none" xmlns="http://www.w3.org/2000/svg">
<g id="Social Media / Discord">
<rect width="36" height="36" rx="18" fill="white" fill-opacity="0.1"/>
<path id="Vector" d="M26.348 10.5202C29.0585 14.4429 30.3971 18.8676 29.8967 23.9614C29.8946 23.983 29.8832 24.0027 29.8652 24.0157C27.8126 25.4993 25.8239 26.3996 23.8631 26.9967C23.8478 27.0013 23.8315 27.001 23.8164 26.996C23.8012 26.991 23.7881 26.9814 23.7788 26.9687C23.3258 26.3482 22.9142 25.6942 22.5536 25.0073C22.5329 24.9669 22.5518 24.9181 22.5944 24.9022C23.2481 24.6598 23.8697 24.3692 24.4676 24.0252C24.5147 23.998 24.5177 23.9316 24.4742 23.8997C24.3473 23.807 24.2216 23.7095 24.1013 23.6121C24.0788 23.594 24.0485 23.5905 24.023 23.6026C20.1413 25.367 15.8891 25.367 11.9615 23.6026C11.936 23.5914 11.9057 23.5952 11.8838 23.6129C11.7638 23.7104 11.6378 23.807 11.5121 23.8997C11.4686 23.9316 11.4722 23.998 11.5196 24.0252C12.1175 24.3627 12.7391 24.6598 13.3919 24.9034C13.4342 24.9193 13.4543 24.9669 13.4333 25.0073C13.0805 25.6951 12.6689 26.3491 12.2075 26.9695C12.1874 26.9946 12.1544 27.0062 12.1232 26.9967C10.1717 26.3996 8.18301 25.4993 6.13041 24.0157C6.11331 24.0027 6.10101 23.9821 6.09921 23.9605C5.68101 19.5544 6.53331 15.0931 9.64461 10.5193C9.65211 10.5072 9.66351 10.4978 9.67671 10.4922C11.2076 9.8006 12.8477 9.29181 14.5619 9.00124C14.5931 8.99652 14.6243 9.01069 14.6405 9.03786C14.8523 9.40698 15.0944 9.88033 15.2582 10.2672C17.0651 9.9955 18.9002 9.9955 20.7449 10.2672C20.9087 9.8886 21.1424 9.40698 21.3533 9.03786C21.3608 9.02438 21.3724 9.01359 21.3866 9.00701C21.4007 9.00044 21.4165 8.99842 21.4319 9.00124C23.147 9.2927 24.7871 9.80149 26.3168 10.4922C26.3303 10.4978 26.3414 10.5072 26.348 10.5202ZM16.1768 18.8977C16.1957 17.5952 15.2309 16.5173 14.0198 16.5173C12.8186 16.5173 11.8631 17.5857 11.8631 18.8977C11.8631 20.2094 12.8375 21.2778 14.0198 21.2778C15.2213 21.2778 16.1768 20.2094 16.1768 18.8977ZM24.1514 18.8977C24.1703 17.5952 23.2055 16.5173 21.9947 16.5173C20.7932 16.5173 19.8377 17.5857 19.8377 18.8977C19.8377 20.2094 20.8121 21.2778 21.9947 21.2778C23.2055 21.2778 24.1514 20.2094 24.1514 18.8977Z" fill="white"/>
</g>
</svg>
