<svg width="32" height="32" viewBox="0 0 32 32" fill="none" xmlns="http://www.w3.org/2000/svg">
<g id="vuesax/bold/like-dislike">
<g id="like-dislike">
<path id="Vector" d="M17.5334 20.4933C17.2401 20.0666 16.7201 19.8266 16.1201 19.8266H13.0134C12.8134 19.8266 12.6134 19.7466 12.4934 19.5866C12.3601 19.4266 12.3067 19.2266 12.3334 19L12.7201 16.52C12.8801 15.7866 12.3867 14.9466 11.6534 14.6933C10.9601 14.44 10.1601 14.7866 9.82675 15.28L6.74675 19.8666V19.2933C6.74675 18.1733 6.26675 17.72 5.09341 17.72H4.32008C3.14675 17.7333 2.66675 18.1866 2.66675 19.3066V26.92C2.66675 28.04 3.14675 28.4933 4.32008 28.4933H5.09341C6.21341 28.4933 6.68008 28.0533 6.72008 27.04L9.05341 28.84C9.38675 29.16 10.0934 29.3333 10.6001 29.3333H13.5467C14.5601 29.3333 15.5734 28.5733 15.8134 27.64L17.6801 21.9733C17.8801 21.4266 17.8267 20.9066 17.5334 20.4933Z" fill="#121212"/>
<path id="Vector_2" d="M28.1468 3.48001H27.3734C26.2534 3.48001 25.7868 3.92001 25.7334 4.93335L23.4001 3.13335C23.0801 2.81335 22.3601 2.64001 21.8534 2.64001H18.9068C17.8934 2.64001 16.8801 3.40001 16.6401 4.33335L14.7734 10C14.5734 10.5467 14.6401 11.0667 14.9201 11.48C15.2134 11.9067 15.7334 12.1467 16.3334 12.1467H19.4401C19.6401 12.1467 19.8401 12.2267 19.9601 12.3867C20.0934 12.5467 20.1468 12.7467 20.1201 12.9733L19.7334 15.4533C19.5734 16.1867 20.0668 17.0267 20.8001 17.28C21.4934 17.5333 22.2934 17.1867 22.6268 16.6933L25.7068 12.1067V12.68C25.7068 13.8 26.1868 14.2533 27.3601 14.2533H28.1334C29.3068 14.2533 29.7868 13.8 29.7868 12.68V5.04001C29.8001 3.93335 29.3201 3.48001 28.1468 3.48001Z" fill="#121212"/>
</g>
</g>
</svg>
