<svg width="36" height="36" viewBox="0 0 36 36" fill="none" xmlns="http://www.w3.org/2000/svg">
<rect width="36" height="36" rx="18" fill="white" fill-opacity="0.1"/>
<path d="M19.2955 18.1796C19.2955 21.2591 16.7549 23.7596 13.6077 23.7596C10.4605 23.7596 7.91992 21.2591 7.91992 18.1796C7.91992 15.1001 10.4605 12.5996 13.6077 12.5996C16.7549 12.5996 19.2955 15.1001 19.2955 18.1796ZM25.5267 18.1796C25.5267 21.0743 24.2502 23.427 22.6829 23.427C21.1156 23.427 19.839 21.0743 19.839 18.1796C19.839 15.2849 21.1156 12.9322 22.6829 12.9322C24.2502 12.9322 25.5267 15.2726 25.5267 18.1796ZM28.0799 18.1796C28.0799 20.7787 27.6375 22.885 27.0814 22.885C26.5253 22.885 26.0829 20.7787 26.0829 18.1796C26.0829 15.5805 26.5253 13.4742 27.0814 13.4742C27.6375 13.4742 28.0799 15.5805 28.0799 18.1796Z" fill="white"/>
</svg>
