<svg width="32" height="32" viewBox="0 0 32 32" fill="none" xmlns="http://www.w3.org/2000/svg">
<path d="M22.6667 5.33334H9.33333C5.33333 5.33334 2.66667 7.33334 2.66667 12V16.7467C2.66667 17.24 3.17333 17.5467 3.61333 17.3467C4.92 16.7467 6.42667 16.52 8.01333 16.8C11.52 17.4267 14.0933 20.68 14 24.24C13.9867 24.8 13.9067 25.3467 13.76 25.88C13.6533 26.2933 13.9867 26.68 14.4133 26.68H22.6667C26.6667 26.68 29.3333 24.68 29.3333 20.0133V12C29.3333 7.33334 26.6667 5.33334 22.6667 5.33334ZM16 19.3333C14.16 19.3333 12.6667 17.84 12.6667 16C12.6667 14.16 14.16 12.6667 16 12.6667C17.84 12.6667 19.3333 14.16 19.3333 16C19.3333 17.84 17.84 19.3333 16 19.3333ZM25.6667 18.6667C25.6667 19.2133 25.2133 19.6667 24.6667 19.6667C24.12 19.6667 23.6667 19.2133 23.6667 18.6667V13.3333C23.6667 12.7867 24.12 12.3333 24.6667 12.3333C25.2133 12.3333 25.6667 12.7867 25.6667 13.3333V18.6667Z" fill="#D9D9D9"/>
<path d="M6.66667 18.6667C3.72 18.6667 1.33333 21.0533 1.33333 24C1.33333 25 1.61333 25.9467 2.10667 26.7467C3.02667 28.2933 4.72 29.3333 6.66667 29.3333C8.61333 29.3333 10.3067 28.2933 11.2267 26.7467C11.72 25.9467 12 25 12 24C12 21.0533 9.61333 18.6667 6.66667 18.6667ZM9.29333 23.56L6.45333 26.1867C6.26667 26.36 6.01333 26.4533 5.77333 26.4533C5.52 26.4533 5.26667 26.36 5.06667 26.16L3.74667 24.84C3.36 24.4533 3.36 23.8133 3.74667 23.4267C4.13333 23.04 4.77333 23.04 5.16 23.4267L5.8 24.0667L7.93333 22.0933C8.33333 21.72 8.97333 21.7467 9.34667 22.1467C9.72 22.5467 9.69333 23.1867 9.29333 23.56Z" fill="#D9D9D9"/>
</svg>
