<svg width="37" height="36" viewBox="0 0 37 36" fill="none" xmlns="http://www.w3.org/2000/svg">
<g id="vuesax/bold/status-up">
<g id="status-up">
<path id="Vector" d="M24.9516 3H12.3816C6.92163 3 3.66663 6.255 3.66663 11.715V24.27C3.66663 29.745 6.92163 33 12.3816 33H24.9366C30.3966 33 33.6516 29.745 33.6516 24.285V11.715C33.6666 6.255 30.4116 3 24.9516 3ZM12.1116 27.225C12.1116 27.84 11.6016 28.35 10.9866 28.35C10.3716 28.35 9.86163 27.84 9.86163 27.225V24.12C9.86163 23.505 10.3716 22.995 10.9866 22.995C11.6016 22.995 12.1116 23.505 12.1116 24.12V27.225ZM19.7916 27.225C19.7916 27.84 19.2816 28.35 18.6666 28.35C18.0516 28.35 17.5416 27.84 17.5416 27.225V21C17.5416 20.385 18.0516 19.875 18.6666 19.875C19.2816 19.875 19.7916 20.385 19.7916 21V27.225ZM27.4716 27.225C27.4716 27.84 26.9616 28.35 26.3466 28.35C25.7316 28.35 25.2216 27.84 25.2216 27.225V17.895C25.2216 17.28 25.7316 16.77 26.3466 16.77C26.9616 16.77 27.4716 17.28 27.4716 17.895V27.225ZM27.4716 13.155C27.4716 13.77 26.9616 14.28 26.3466 14.28C25.7316 14.28 25.2216 13.77 25.2216 13.155V11.7C21.3966 15.63 16.6116 18.405 11.2566 19.74C11.1666 19.77 11.0766 19.77 10.9866 19.77C10.4766 19.77 10.0266 19.425 9.89163 18.915C9.74163 18.315 10.1016 17.7 10.7166 17.55C15.7716 16.29 20.2716 13.635 23.8416 9.885H21.9666C21.3516 9.885 20.8416 9.375 20.8416 8.76C20.8416 8.145 21.3516 7.635 21.9666 7.635H26.3616C26.4216 7.635 26.4666 7.665 26.5266 7.665C26.6016 7.68 26.6766 7.68 26.7516 7.71C26.8266 7.74 26.8866 7.785 26.9616 7.83C27.0066 7.86 27.0516 7.875 27.0966 7.905C27.1116 7.92 27.1116 7.935 27.1266 7.935C27.1866 7.995 27.2316 8.055 27.2766 8.115C27.3216 8.175 27.3666 8.22 27.3816 8.28C27.4116 8.34 27.4116 8.4 27.4266 8.475C27.4416 8.55 27.4716 8.625 27.4716 8.715C27.4716 8.73 27.4866 8.745 27.4866 8.76V13.155H27.4716Z" fill="#D9D9D9"/>
</g>
</g>
</svg>
