<svg width="48" height="48" viewBox="0 0 48 48" fill="none" xmlns="http://www.w3.org/2000/svg">
<path d="M40 38.52H21.86C20.96 38.52 20.22 37.78 20.22 36.88C20.22 35.98 20.96 35.24 21.86 35.24H40C40.9 35.24 41.64 35.98 41.64 36.88C41.64 37.8 40.9 38.52 40 38.52Z" fill="#1A9ADA"/>
<path d="M40 25.9399H21.86C20.96 25.9399 20.22 25.1999 20.22 24.2999C20.22 23.3999 20.96 22.6599 21.86 22.6599H40C40.9 22.6599 41.64 23.3999 41.64 24.2999C41.64 25.1999 40.9 25.9399 40 25.9399Z" fill="#1A9ADA"/>
<path d="M40 13.3401H21.86C20.96 13.3401 20.22 12.6001 20.22 11.7001C20.22 10.8001 20.96 10.0601 21.86 10.0601H40C40.9 10.0601 41.64 10.8001 41.64 11.7001C41.64 12.6001 40.9 13.3401 40 13.3401Z" fill="#1A9ADA"/>
<path d="M9.81998 16.0601C9.37998 16.0601 8.95999 15.8801 8.65999 15.5801L6.83999 13.7601C6.19999 13.1201 6.19999 12.0801 6.83999 11.4401C7.47999 10.8001 8.51999 10.8001 9.15999 11.4401L9.81998 12.1001L14.1 7.82009C14.74 7.18009 15.78 7.18009 16.42 7.82009C17.06 8.46009 17.06 9.50009 16.42 10.1401L10.98 15.5801C10.66 15.8801 10.26 16.0601 9.81998 16.0601Z" fill="#1A9ADA"/>
<path d="M9.81998 28.6599C9.39998 28.6599 8.97998 28.4999 8.65999 28.1799L6.83999 26.3599C6.19999 25.7199 6.19999 24.6799 6.83999 24.0399C7.47999 23.3999 8.51999 23.3999 9.15999 24.0399L9.81998 24.6999L14.1 20.4199C14.74 19.7799 15.78 19.7799 16.42 20.4199C17.06 21.0599 17.06 22.0999 16.42 22.7399L10.98 28.1799C10.66 28.4999 10.24 28.6599 9.81998 28.6599Z" fill="#1A9ADA"/>
<path d="M9.81998 40.6599C9.39998 40.6599 8.97998 40.4999 8.65999 40.1799L6.83999 38.3599C6.19999 37.7199 6.19999 36.6799 6.83999 36.0399C7.47999 35.3999 8.51999 35.3999 9.15999 36.0399L9.81998 36.6999L14.1 32.4199C14.74 31.7799 15.78 31.7799 16.42 32.4199C17.06 33.0599 17.06 34.0999 16.42 34.7399L10.98 40.1799C10.66 40.4999 10.24 40.6599 9.81998 40.6599Z" fill="#1A9ADA"/>
</svg>
