<svg width="36" height="36" viewBox="0 0 36 36" fill="none" xmlns="http://www.w3.org/2000/svg">
<g id="File_dock_fill">
<rect width="36" height="36" rx="18" fill="white" fill-opacity="0.1"/>
<path id="Vector" d="M6.40378 15.5539C6.40378 15.5539 15.502 11.6026 18.6574 10.2112C19.8671 9.65469 23.9692 7.87374 23.9692 7.87374C23.9692 7.87374 25.8625 7.09464 25.7047 8.98681C25.652 9.76599 25.2313 12.4929 24.8106 15.4426C24.1795 19.6166 23.4958 24.1801 23.4958 24.1801C23.4958 24.1801 23.3906 25.4602 22.4966 25.6828C21.6026 25.9054 20.13 24.9037 19.8671 24.681C19.6567 24.5141 15.9227 22.0097 14.5554 20.7853C14.1872 20.4514 13.7665 19.7836 14.6079 19.0044C16.5012 17.1678 18.7626 14.8861 20.13 13.4391C20.7611 12.7712 21.3922 11.213 18.7626 13.1051C15.0287 15.8322 11.3473 18.3922 11.3473 18.3922C11.3473 18.3922 10.5059 18.9487 8.92814 18.4478C7.35036 17.947 5.50967 17.2791 5.50967 17.2791C5.50967 17.2791 4.24756 16.4444 6.40378 15.5539Z" fill="white"/>
</g>
</svg>
