<svg width="24" height="25" viewBox="0 0 24 25" fill="none" xmlns="http://www.w3.org/2000/svg">
<g id="vuesax/bold/tick-circle">
<g id="tick-circle">
<path id="Vector" d="M12 2.40381C6.49 2.40381 2 6.89381 2 12.4038C2 17.9138 6.49 22.4038 12 22.4038C17.51 22.4038 22 17.9138 22 12.4038C22 6.89381 17.51 2.40381 12 2.40381ZM16.78 10.1038L11.11 15.7738C10.97 15.9138 10.78 15.9938 10.58 15.9938C10.38 15.9938 10.19 15.9138 10.05 15.7738L7.22 12.9438C6.93 12.6538 6.93 12.1738 7.22 11.8838C7.51 11.5938 7.99 11.5938 8.28 11.8838L10.58 14.1838L15.72 9.04381C16.01 8.75381 16.49 8.75381 16.78 9.04381C17.07 9.33381 17.07 9.80381 16.78 10.1038Z" fill="white"/>
</g>
</g>
</svg>
