<svg width="48" height="48" viewBox="0 0 48 48" fill="none" xmlns="http://www.w3.org/2000/svg">
<g id="vuesax/bold/ticket-star">
<g id="ticket-star">
<path id="Vector" d="M33.3 7.71997H19.82V13.76C19.82 14.54 19.18 15.16 18.42 15.16C17.66 15.16 17.02 14.54 17.02 13.76V7.71997H14.7C6.79999 7.71997 4.19999 10.08 4.01999 17.46C3.99999 17.82 4.15999 18.2 4.41999 18.46C4.67999 18.74 5.01999 18.88 5.41999 18.88C8.21999 18.88 10.52 21.2 10.52 24C10.52 26.8 8.21999 29.12 5.41999 29.12C5.03999 29.12 4.67999 29.26 4.41999 29.54C4.15999 29.8 3.99999 30.18 4.01999 30.54C4.19999 37.92 6.79999 40.28 14.7 40.28H17.02V34.24C17.02 33.46 17.66 32.84 18.42 32.84C19.18 32.84 19.82 33.46 19.82 34.24V40.28H33.3C41.5 40.28 44 37.78 44 29.58V18.42C44 10.22 41.5 7.71997 33.3 7.71997ZM36.94 23.8L35.08 25.6C35 25.66 34.98 25.78 35 25.88L35.44 28.42C35.52 28.88 35.34 29.36 34.94 29.64C34.56 29.92 34.06 29.96 33.64 29.74L31.34 28.54C31.26 28.5 31.14 28.5 31.06 28.54L28.76 29.74C28.58 29.84 28.38 29.88 28.18 29.88C27.92 29.88 27.68 29.8 27.46 29.64C27.08 29.36 26.88 28.9 26.96 28.42L27.4 25.88C27.42 25.78 27.38 25.68 27.32 25.6L25.46 23.8C25.12 23.48 25 22.98 25.14 22.54C25.28 22.08 25.66 21.76 26.14 21.7L28.7 21.32C28.8 21.3 28.88 21.24 28.94 21.16L30.08 18.84C30.3 18.42 30.72 18.16 31.2 18.16C31.68 18.16 32.1 18.42 32.3 18.84L33.44 21.16C33.48 21.26 33.56 21.32 33.66 21.32L36.22 21.7C36.7 21.76 37.08 22.1 37.22 22.54C37.4 22.98 37.28 23.46 36.94 23.8Z" fill="#1A9ADA"/>
</g>
</g>
</svg>
