<svg width="20" height="20" viewBox="0 0 20 20" fill="none" xmlns="http://www.w3.org/2000/svg">
<g id="vuesax/bold/tick-circle">
<g id="tick-circle">
<path id="Vector" d="M4.79995 15.5999L15.2 15.5999L15.2 4.39985L4.79995 4.39985L4.79995 15.5999Z" fill="#121212"/>
<path id="Vector_2" d="M10 2C5.592 2 2 5.592 2 10C2 14.408 5.592 18 10 18C14.408 18 18 14.408 18 10C18 5.592 14.408 2 10 2ZM13.824 8.16L9.288 12.696C9.176 12.808 9.024 12.872 8.864 12.872C8.704 12.872 8.552 12.808 8.44 12.696L6.176 10.432C5.944 10.2 5.944 9.816 6.176 9.584C6.408 9.352 6.792 9.352 7.024 9.584L8.864 11.424L12.976 7.312C13.208 7.08 13.592 7.08 13.824 7.312C14.056 7.544 14.056 7.92 13.824 8.16Z" fill="#D9D9D9"/>
</g>
</g>
</svg>
