<svg width="36" height="36" viewBox="0 0 36 36" fill="none" xmlns="http://www.w3.org/2000/svg">
<rect width="36" height="36" rx="18" fill="white" fill-opacity="0.1"/>
<g clip-path="url(#clip0_622_388)">
<path d="M16.7256 19.9439C16.1732 20.5676 15.6405 21.1663 15.1078 21.7692C13.6203 23.4532 12.1328 25.1372 10.6493 26.8254C10.5349 26.9543 10.4204 27.0042 10.2587 27C9.86015 26.9875 9.46164 26.9958 9.00395 26.9958C11.3871 24.3056 13.7269 21.6611 16.0745 19.0125C13.719 15.6819 11.3753 12.368 9 9.01247C9.11442 9.01247 9.1815 9.01247 9.25252 9.01247C10.8229 9.01247 12.3972 9.01663 13.9676 9.00832C14.1372 9.00832 14.2398 9.05821 14.3424 9.20374C15.8615 11.3493 17.3924 13.4948 18.9154 15.6362C18.9351 15.6611 18.9588 15.6861 18.9904 15.7235C19.3257 15.3493 19.6493 14.9792 19.9768 14.6133C21.5274 12.8545 23.0859 11.1081 24.6247 9.34511C24.8417 9.09979 25.0469 8.97505 25.3665 9.00416C25.6861 9.03326 26.0057 9.01247 26.3805 9.01247C24.1157 11.578 21.8825 14.106 19.6374 16.6466C22.0877 20.0852 24.534 23.5197 27 26.9834C26.9093 26.9875 26.8461 26.9958 26.783 26.9958C25.1574 26.9958 23.5357 26.9958 21.9101 27C21.772 27 21.6852 26.9584 21.5984 26.8378C20.0202 24.5967 18.438 22.3597 16.8558 20.1227C16.8203 20.0686 16.7808 20.0187 16.7256 19.9439ZM11.2411 10.1726C11.3003 10.2557 11.324 10.2973 11.3516 10.3347C12.4169 11.8274 13.4822 13.3202 14.5515 14.8129C17.1241 18.4137 19.6966 22.0104 22.2652 25.6112C22.3402 25.7152 22.4191 25.7568 22.5454 25.7568C23.228 25.7526 23.9145 25.7526 24.5971 25.7526C24.6523 25.7526 24.7115 25.7443 24.7904 25.7401C24.751 25.6736 24.7273 25.6279 24.6957 25.5863C22.5099 22.5135 20.3279 19.4407 18.142 16.3638C16.7098 14.3472 15.2736 12.3306 13.8413 10.3139C13.7663 10.2058 13.6874 10.1684 13.5651 10.1684C12.993 10.1726 12.4209 10.1726 11.8488 10.1726C11.6594 10.1726 11.47 10.1726 11.2411 10.1726Z" fill="white"/>
</g>
<defs>
<clipPath id="clip0_622_388">
<rect width="18" height="18" fill="white" transform="translate(9 9)"/>
</clipPath>
</defs>
</svg>
