<svg width="48" height="48" viewBox="0 0 48 48" fill="none" xmlns="http://www.w3.org/2000/svg">
<g id="vuesax/bold/wallet">
<g id="wallet">
<path id="Vector" d="M23.88 4.42003L19.06 15.64H14.24C13.44 15.64 12.66 15.7 11.9 15.86L13.9 11.06L13.98 10.88L14.1 10.56C14.16 10.42 14.2 10.3 14.26 10.2C16.58 4.82003 19.18 3.14003 23.88 4.42003Z" fill="#1A9ADA"/>
<path id="Vector_2" d="M37.46 16.18L37.42 16.16C36.22 15.82 35 15.64 33.76 15.64H21.24L25.74 5.18004L25.8 5.04004C26.08 5.14004 26.38 5.28004 26.68 5.38004L31.1 7.24004C33.56 8.26004 35.28 9.32004 36.34 10.6C36.52 10.84 36.68 11.06 36.84 11.32C37.02 11.6 37.16 11.88 37.24 12.18C37.32 12.36 37.38 12.52 37.42 12.7C37.72 13.72 37.74 14.88 37.46 16.18Z" fill="#1A9ADA"/>
<path id="Vector_3" d="M25.04 35.32H25.54C26.14 35.32 26.64 34.78 26.64 34.12C26.64 33.28 26.4 33.16 25.88 32.96L25.04 32.66V35.32Z" fill="#1A9ADA"/>
<path id="Vector_4" d="M36.58 19.04C35.68 18.78 34.74 18.64 33.76 18.64H14.24C12.88 18.64 11.6 18.9 10.4 19.42C6.91998 20.92 4.47998 24.38 4.47998 28.4V32.3C4.47998 32.78 4.51998 33.24 4.57998 33.72C5.01998 40.08 8.41998 43.48 14.78 43.9C15.24 43.96 15.7 44 16.2 44H31.8C39.2 44 43.1 40.48 43.48 33.48C43.5 33.1 43.52 32.7 43.52 32.3V28.4C43.52 23.98 40.58 20.26 36.58 19.04ZM26.56 31C27.48 31.32 28.72 32 28.72 34.12C28.72 35.94 27.3 37.4 25.54 37.4H25.04V37.84C25.04 38.42 24.58 38.88 24 38.88C23.42 38.88 22.96 38.42 22.96 37.84V37.4H22.78C20.86 37.4 19.28 35.78 19.28 33.78C19.28 33.2 19.74 32.74 20.32 32.74C20.9 32.74 21.36 33.2 21.36 33.78C21.36 34.62 22 35.32 22.78 35.32H22.96V31.94L21.44 31.4C20.52 31.08 19.28 30.4 19.28 28.28C19.28 26.46 20.7 25 22.46 25H22.96V24.56C22.96 23.98 23.42 23.52 24 23.52C24.58 23.52 25.04 23.98 25.04 24.56V25H25.22C27.14 25 28.72 26.62 28.72 28.62C28.72 29.2 28.26 29.66 27.68 29.66C27.1 29.66 26.64 29.2 26.64 28.62C26.64 27.78 26 27.08 25.22 27.08H25.04V30.46L26.56 31Z" fill="#1A9ADA"/>
<path id="Vector_5" d="M21.36 28.28C21.36 29.12 21.6 29.24 22.12 29.44L22.96 29.74V27.08H22.46C21.84 27.08 21.36 27.62 21.36 28.28Z" fill="#1A9ADA"/>
</g>
</g>
</svg>
