<svg width="144" height="48" viewBox="0 0 144 48" fill="none" xmlns="http://www.w3.org/2000/svg">
<g id="Frame" clip-path="url(#clip0_489_417)">
<g id="Group">
<g id="Group_2">
<g id="Group_3">
<path id="Vector" d="M53.8528 26.4455L53.886 20.9473C53.886 18.0801 54.7154 15.955 56.3412 14.572C58.0333 13.189 60.2231 12.5144 62.8442 12.5481C64.5363 12.5481 66.0293 12.8517 67.3565 13.3914C68.6836 13.9986 69.679 14.8082 70.3425 15.8538C71.0061 16.7983 71.4043 18.1138 71.4374 19.8342L68.2523 19.6655C68.1859 18.2488 67.7214 17.1356 66.8588 16.3598C65.8302 15.584 64.5031 15.2129 62.8442 15.1792C61.0194 15.1792 59.5927 15.6177 58.5641 16.5285C57.602 17.4055 57.1043 18.8897 57.0711 21.0148V26.5467C57.0379 30.3247 58.9623 32.2136 62.7778 32.2136C64.4699 32.2136 65.8302 31.8763 66.8256 31.1342C67.7546 30.3921 68.2191 29.3802 68.2191 28.1658V27.6936L71.3379 27.7273V28.1996C71.3379 30.2235 70.5084 31.9101 68.9159 33.1919C67.1906 34.3725 65.1335 34.9796 62.7115 34.9459C60.024 34.9459 57.8674 34.2375 56.2416 32.8545C54.6491 31.4715 53.8528 29.3127 53.8528 26.4455Z" fill="#121212"/>
<path id="Vector_2" d="M75.7175 27.019V27.6599C75.7175 29.2453 76.0824 30.4259 76.8455 31.1342C77.5423 31.7414 78.604 32.0787 79.9975 32.0787C81.1919 32.0787 82.1209 31.8426 82.7845 31.3703C83.3817 30.9318 83.7135 30.156 83.7467 29.0091H86.6996V29.4814C86.6996 30.9318 86.0692 32.1799 84.8084 33.2256C83.5476 34.1026 81.8887 34.5411 79.8316 34.5411C77.7414 34.5411 76.0161 33.9339 74.6226 32.7871C73.3618 31.6065 72.7314 29.8524 72.7314 27.5249V24.8264C72.7314 22.5664 73.395 20.8461 74.6889 19.6655C76.1156 18.5186 77.8409 17.9789 79.8648 17.9789C81.8223 17.9789 83.5476 18.5861 84.9743 19.733C86.2682 20.9136 86.8986 22.6339 86.8655 24.8939V26.9852L75.7175 27.019ZM76.8455 21.5545L76.8123 21.5882C76.1488 22.2628 75.7838 23.376 75.7506 24.8939L83.9126 24.9276C83.8462 23.2748 83.5144 22.1279 82.8508 21.5207C82.0214 20.8798 81.026 20.5762 79.898 20.5762C78.6704 20.5762 77.675 20.9136 76.8455 21.5545Z" fill="#121212"/>
<path id="Vector_3" d="M89.0552 18.5524H92.0413V19.9016C92.904 19.3282 93.468 19.0246 93.6671 18.9234C94.6292 18.5861 95.5914 18.4174 96.5868 18.4174C98.5443 18.4174 100.071 18.9571 101.165 20.0028C102.194 20.9473 102.692 22.364 102.692 24.2867L102.625 34.7435H99.6392L99.7056 24.5903C99.7056 23.4097 99.407 22.5327 98.7766 21.858C98.113 21.2509 97.184 20.9136 95.9896 20.9136C94.762 20.9136 93.7998 21.2171 93.103 21.858C92.4063 22.4989 92.0413 23.376 92.0413 24.5228L91.975 34.676H88.9889L89.0552 18.5524Z" fill="#121212"/>
<path id="Vector_4" d="M108.465 33.1919V34.5748H105.479L105.611 12.8517H108.597L108.564 19.9016C109.095 19.4631 109.593 19.1258 110.024 18.9234C110.92 18.4849 111.882 18.2488 112.911 18.2488C114.669 18.2488 116.195 18.8222 117.522 19.9353C118.783 21.0485 119.38 22.7351 119.38 24.9614L119.347 28.1321C119.347 30.3921 118.717 32.0787 117.489 33.2256C116.328 34.2713 114.835 34.7772 113.01 34.7772C111.351 34.7772 109.825 34.2375 108.465 33.1919ZM116.295 28.0647V25.0963C116.295 23.6458 115.996 22.5664 115.399 21.858C114.802 21.1497 113.84 20.7786 112.546 20.7786C111.152 20.7786 110.124 21.1834 109.526 21.993C108.863 22.7688 108.498 23.8482 108.498 25.2649V27.9635C108.498 29.2453 108.83 30.2909 109.526 31.1005C110.223 31.8763 111.252 32.2811 112.612 32.2811C113.873 32.2811 114.802 31.9438 115.399 31.2354C115.996 30.5608 116.295 29.4814 116.295 28.0647Z" fill="#121212"/>
<path id="Vector_5" d="M120.475 28.1658L120.509 24.9951C120.509 22.7688 121.172 21.0822 122.466 19.9691C123.926 18.8897 125.684 18.35 127.708 18.35C129.666 18.35 131.391 18.9234 132.818 20.0365C134.112 21.1834 134.775 22.8363 134.742 25.0625L134.709 28.2333C134.709 30.4259 134.012 32.1124 132.685 33.3268C131.358 34.3725 129.666 34.8784 127.609 34.8784C125.452 34.8784 123.727 34.3387 122.433 33.293C121.106 32.1462 120.475 30.4259 120.475 28.1658ZM131.723 28.1321V25.1637C131.723 23.8145 131.391 22.7013 130.728 21.858C129.898 21.1834 128.87 20.8461 127.675 20.8461C126.447 20.8461 125.419 21.1497 124.589 21.7906C123.86 22.5327 123.495 23.6458 123.495 25.0963V28.0647C123.495 29.4476 123.86 30.5608 124.556 31.4041C125.386 32.0112 126.414 32.3486 127.609 32.3486C128.77 32.3486 129.765 32.0787 130.595 31.4715C131.325 30.662 131.69 29.5488 131.723 28.1321Z" fill="#121212"/>
<path id="Vector_6" d="M141.212 21.116L141.179 30.6957C141.179 31.3029 141.345 31.7414 141.643 32.045C141.975 32.3486 142.473 32.4835 143.17 32.4835H144.862V34.9122H142.805C141.345 34.9122 140.217 34.5411 139.387 33.799C138.558 33.0569 138.16 32.045 138.16 30.7632L138.226 21.0822H135.439V18.7885H138.226L138.259 15.3816C138.491 15.2804 138.989 15.078 139.686 14.7744C140.383 14.4708 140.947 14.2347 141.312 14.0661L141.278 18.7547L145.26 18.7885V21.0822L141.212 21.116Z" fill="#121212"/>
</g>
</g>
<g id="Group_4">
<path id="Vector_7" d="M45.8528 32.0112C43.5635 38.5889 38.6199 43.6486 32.515 46.2122C29.728 47.3591 26.7088 48 23.59 48C21.1679 48 18.8123 47.629 16.5893 46.9206H16.5561C6.9675 44.0871 0 35.3507 0 24.1518V24.0169C0 23.6121 0 23.2073 0.0331786 22.8025C0.0331786 22.6001 0.0663572 22.3978 0.0663572 22.1954C0.69675 13.4926 5.60718 6.24034 12.9065 2.63106C12.9065 2.63106 12.9396 2.59733 12.9728 2.59733C16.158 0.944483 19.7744 0 23.59 0C25.4148 0 27.2064 0.202389 28.9649 0.640899C34.0744 1.85524 38.6862 4.75615 42.0041 9.00632L30.6902 18.2488C30.1593 18.0801 29.5953 17.9452 29.0644 17.7765C28.4009 17.5741 27.7705 17.3717 27.1069 17.1694C26.5097 17.0007 25.9456 16.832 25.3484 16.6297C24.6517 16.4273 23.9549 16.2249 23.2914 16.0225C22.6941 15.8538 22.0969 15.6852 21.4997 15.5165C20.5707 15.2467 19.6085 14.9431 18.6795 14.6732C18.0491 14.4708 17.4188 14.3359 16.7884 14.1335C15.9257 13.8637 15.0299 13.5938 14.1673 13.3577C13.3046 13.1216 12.4751 13.2565 12.1765 13.9986C11.9775 14.5046 11.9443 15.0443 12.077 15.584C12.442 16.7646 12.8069 17.9789 13.1719 19.1595C13.6032 20.5762 13.9682 22.0267 14.3995 23.4434C14.7976 24.759 15.229 26.1082 15.6271 27.4238C16.0253 28.7393 16.357 30.0548 16.7552 31.3703C17.0538 32.3148 17.3524 33.293 17.651 34.2375C18.016 35.5193 18.3809 36.8349 18.7791 38.1167C18.945 38.6564 19.0777 39.1961 19.4426 39.6683C19.9735 40.2755 20.5375 40.3429 21.2011 40.0394C21.8979 39.7358 22.4287 39.1623 22.9596 38.6901C23.789 37.9143 24.6517 37.1722 25.5143 36.4301C26.5097 35.5531 27.505 34.676 28.5004 33.7653C28.5999 33.6978 28.6331 33.6641 28.6995 33.6641C28.799 33.6641 28.8654 33.7316 28.8985 33.7653C30.292 34.8784 31.6855 35.9916 33.079 37.1384C33.079 37.1384 33.4108 37.442 34.008 37.4083C34.0412 37.4083 34.0744 37.4083 34.0744 37.3746C34.1076 37.3408 34.1076 37.2734 34.1076 37.2734C33.5767 33.7316 33.3113 31.9775 33.3113 31.9775C33.3113 31.8763 33.0459 30.2235 33.0459 30.1223C33.0127 29.9199 32.9131 29.785 32.7473 29.6163C32.1832 29.1778 31.6192 28.773 31.0883 28.3345C30.1593 27.6261 28.7658 26.4793 27.0405 25.1975C25.083 23.7133 18.4141 18.9909 18.1819 18.35C18.0823 18.0801 18.1819 17.9452 18.1819 17.9452C18.1819 17.9452 18.2482 17.8777 18.3809 17.844C18.9781 17.7428 24.8508 21.0148 25.083 21.1497C25.4148 21.3521 25.8461 21.5882 26.4101 21.858C26.9078 22.1279 27.505 22.4315 28.235 22.8025C28.3677 22.87 28.4672 22.9375 28.5999 22.9712L31.7187 24.624C32.6145 25.0963 33.5435 25.5685 34.4394 26.0408L37.0605 27.4238C39.8475 28.9079 42.6677 30.3584 45.4878 31.8426C45.521 31.8426 45.6869 31.9438 45.8528 32.0112Z" fill="url(#paint0_linear_489_417)"/>
</g>
</g>
</g>
<defs>
<linearGradient id="paint0_linear_489_417" x1="6.79126" y1="7.04183" x2="40.7717" y2="40.4652" gradientUnits="userSpaceOnUse">
<stop stop-color="#0DE0FD"/>
<stop offset="0.1762" stop-color="#08C1EC"/>
<stop offset="0.3624" stop-color="#05A8DE"/>
<stop offset="0.5569" stop-color="#0296D4"/>
<stop offset="0.7629" stop-color="#018BCE"/>
<stop offset="1" stop-color="#0088CC"/>
</linearGradient>
<clipPath id="clip0_489_417">
<rect width="144" height="48" fill="white"/>
</clipPath>
</defs>
</svg>
