<svg width="303" height="100" viewBox="0 0 303 100" fill="none" xmlns="http://www.w3.org/2000/svg">
<path d="M110.57 54.7564L110.64 43.3712C110.64 37.4341 112.386 33.0337 115.809 30.1699C119.371 27.3062 123.981 25.9092 129.499 25.9791C133.061 25.9791 136.205 26.6077 138.999 27.7253C141.792 28.9825 143.888 30.6589 145.285 32.8242C146.682 34.7799 147.52 37.504 147.59 41.0662L140.884 40.717C140.745 37.7834 139.767 35.4784 137.951 33.8719C135.786 32.2654 132.992 31.497 129.499 31.4272C125.658 31.4272 122.654 32.3352 120.489 34.2211C118.463 36.0372 117.416 39.1105 117.346 43.5109V54.966C117.276 62.7889 121.327 66.7004 129.36 66.7004C132.922 66.7004 135.786 66.0019 137.881 64.4653C139.837 62.9286 140.815 60.8332 140.815 58.3187V57.3408L147.38 57.4106V58.3885C147.38 62.5794 145.634 66.0718 142.281 68.726C138.649 71.1707 134.319 72.4279 129.22 72.3581C123.562 72.3581 119.022 70.8913 115.599 68.0275C112.247 65.1638 110.57 60.6935 110.57 54.7564Z" fill="#121212"/>
<path d="M156.599 55.9448V57.2719C156.599 60.5548 157.367 62.9995 158.974 64.4663C160.441 65.7236 162.676 66.422 165.609 66.422C168.124 66.422 170.08 65.9331 171.477 64.9552C172.734 64.0472 173.432 62.4407 173.502 60.0659H179.719V61.0437C179.719 64.0472 178.392 66.6316 175.737 68.7969C173.083 70.6129 169.591 71.5209 165.26 71.5209C160.86 71.5209 157.228 70.2637 154.294 67.8888C151.64 65.4442 150.313 61.8121 150.313 56.9926V51.4047C150.313 46.7249 151.71 43.1627 154.434 40.718C157.437 38.3432 161.069 37.2256 165.33 37.2256C169.451 37.2256 173.083 38.4828 176.087 40.8577C178.811 43.3024 180.138 46.8646 180.068 51.5444V55.875L156.599 55.9448ZM158.974 44.6295L158.904 44.6993C157.507 46.0963 156.739 48.4013 156.669 51.5444L173.851 51.6143C173.712 48.1917 173.013 45.8169 171.616 44.5596C169.87 43.2325 167.775 42.6039 165.4 42.6039C162.816 42.6039 160.72 43.3024 158.974 44.6295Z" fill="#121212"/>
<path d="M184.678 38.4122H190.964V41.2061C192.78 40.0187 193.967 39.3901 194.387 39.1805C196.412 38.4821 198.438 38.1328 200.533 38.1328C204.654 38.1328 207.867 39.2504 210.172 41.4157C212.337 43.3714 213.385 46.305 213.385 50.2864L213.245 71.9392H206.959L207.099 50.915C207.099 48.4703 206.47 46.6543 205.143 45.2573C203.746 44 201.79 43.3016 199.276 43.3016C196.691 43.3016 194.666 43.9302 193.199 45.2573C191.732 46.5844 190.964 48.4005 190.964 50.7753L190.824 71.7995H184.538L184.678 38.4122Z" fill="#121212"/>
<path d="M225.539 68.7267V71.5905H219.252L219.532 26.6084H225.818L225.748 41.2066C226.866 40.2986 227.914 39.6001 228.822 39.181C230.708 38.273 232.733 37.7841 234.898 37.7841C238.6 37.7841 241.813 38.9715 244.607 41.2765C247.261 43.5815 248.519 47.0739 248.519 51.6838L248.449 58.2495C248.449 62.9293 247.122 66.4217 244.537 68.7966C242.093 70.9619 238.95 72.0096 235.108 72.0096C231.616 72.0096 228.403 70.892 225.539 68.7267ZM242.023 58.1098V51.9632C242.023 48.9597 241.394 46.7246 240.137 45.2578C238.88 43.791 236.854 43.0227 234.13 43.0227C231.196 43.0227 229.031 43.8608 227.774 45.5372C226.377 47.1437 225.609 49.3788 225.609 52.3125V57.9003C225.609 60.5545 226.307 62.7198 227.774 64.3961C229.241 66.0026 231.406 66.8408 234.27 66.8408C236.924 66.8408 238.88 66.1423 240.137 64.6755C241.394 63.2786 242.023 61.0434 242.023 58.1098Z" fill="#121212"/>
<path d="M250.825 58.3189L250.895 51.7532C250.895 47.1432 252.292 43.6508 255.016 41.3459C258.089 39.1107 261.791 37.9932 266.052 37.9932C270.173 37.9932 273.805 39.1806 276.808 41.4856C279.532 43.8604 280.929 47.2829 280.859 51.8929L280.789 58.4586C280.789 62.9987 279.323 66.4911 276.529 69.0057C273.735 71.1709 270.173 72.2187 265.842 72.2187C261.302 72.2187 257.67 71.1011 254.946 68.9358C252.152 66.561 250.825 62.9987 250.825 58.3189ZM274.503 58.2491V52.1024C274.503 49.3085 273.805 47.0036 272.408 45.2574C270.662 43.8604 268.496 43.1619 265.982 43.1619C263.397 43.1619 261.232 43.7905 259.486 45.1177C257.949 46.6543 257.181 48.9593 257.181 51.9628V58.1094C257.181 60.9731 257.949 63.2781 259.416 65.0243C261.162 66.2816 263.327 66.9801 265.842 66.9801C268.287 66.9801 270.382 66.4213 272.128 65.164C273.665 63.4877 274.433 61.1827 274.503 58.2491Z" fill="#121212"/>
<path d="M294.479 43.7203L294.409 63.5571C294.409 64.8144 294.758 65.7224 295.387 66.351C296.085 66.9797 297.133 67.2591 298.6 67.2591H302.162V72.2881H297.831C294.758 72.2881 292.383 71.5198 290.637 69.9831C288.891 68.4465 288.053 66.351 288.053 63.6968L288.192 43.6504H282.325V38.9008H288.192L288.262 31.8461C288.751 31.6366 289.799 31.2175 291.266 30.5889C292.733 29.9602 293.92 29.4713 294.688 29.1221L294.618 38.8309L303 38.9008V43.6504L294.479 43.7203Z" fill="#121212"/>
<path d="M96.5299 66.2857C91.7103 79.906 81.303 90.3832 68.451 95.6917C62.5838 98.0665 56.2276 99.3936 49.6619 99.3936C44.563 99.3936 39.6038 98.6253 34.924 97.1585H34.8541C14.6681 91.2913 0 73.2006 0 50.0111V49.7317C0 48.8936 0 48.0554 0.0698479 47.2172C0.0698479 46.7981 0.139696 46.379 0.139696 45.9599C1.46681 27.9392 11.8043 12.9219 27.1709 5.44814C27.1709 5.44814 27.2407 5.37829 27.3105 5.37829C34.0159 1.95574 41.6294 0 49.6619 0C53.5035 0 57.2753 0.419088 60.9773 1.32711C71.7338 3.84164 81.4427 9.84856 88.4275 18.6494L64.6093 37.7877C63.4918 37.4385 62.3044 37.1591 61.1868 36.8099C59.7898 36.3908 58.4627 35.9717 57.0658 35.5526C55.8085 35.2034 54.6211 34.8541 53.3638 34.435C51.897 34.0159 50.4302 33.5969 49.0333 33.1778C47.776 32.8285 46.5187 32.4793 45.2615 32.1301C43.3057 31.5713 41.2801 30.9426 39.3244 30.3839C37.9973 29.9648 36.6702 29.6854 35.3431 29.2663C33.527 28.7075 31.6411 28.1487 29.8251 27.6598C28.009 27.1708 26.2628 27.4502 25.6342 28.9869C25.2151 30.0346 25.1453 31.1522 25.4247 32.2697C26.193 34.7144 26.9613 37.229 27.7296 39.6736C28.6377 42.6072 29.406 45.6107 30.314 48.5443C31.1522 51.2684 32.0602 54.0623 32.8984 56.7864C33.7366 59.5104 34.435 62.2345 35.2732 64.9586C35.9018 66.9143 36.5305 68.9399 37.1591 70.8957C37.9274 73.5499 38.6958 76.2739 39.5339 78.9282C39.8832 80.0457 40.1626 81.1633 40.9309 82.1412C42.0485 83.3984 43.2359 83.5381 44.6328 82.9095C46.0996 82.2809 47.2172 81.0935 48.3348 80.1156C50.081 78.5091 51.897 76.9724 53.7131 75.4358C55.8085 73.6197 57.9039 71.8037 59.9994 69.9178C60.2089 69.7781 60.2788 69.7082 60.4185 69.7082C60.628 69.7082 60.7677 69.8479 60.8376 69.9178C63.7712 72.2228 66.7048 74.5278 69.6384 76.9026C69.6384 76.9026 70.3369 77.5312 71.5941 77.4614C71.664 77.4614 71.7338 77.4614 71.7338 77.3915C71.8037 77.3217 71.8037 77.182 71.8037 77.182C70.6861 69.8479 70.1273 66.2159 70.1273 66.2159C70.1273 66.0063 69.5686 62.5838 69.5686 62.3742C69.4987 61.9551 69.2892 61.6757 68.9399 61.3265C67.7525 60.4185 66.5651 59.5803 65.4475 58.6723C63.4918 57.2055 60.5582 54.8306 56.9261 52.1764C52.805 49.1031 38.7656 39.3244 38.2767 37.9973C38.0671 37.4385 38.2767 37.1591 38.2767 37.1591C38.2767 37.1591 38.4164 37.0194 38.6958 36.9496C39.953 36.74 52.3161 43.5153 52.805 43.7947C53.5035 44.2137 54.4115 44.7027 55.599 45.2615C56.6467 45.8203 57.9039 46.4489 59.4406 47.2172C59.72 47.3569 59.9295 47.4966 60.2089 47.5664L66.7746 50.989C68.6605 51.9669 70.6163 52.9447 72.5022 53.9226L78.0201 56.7864C83.8874 59.8597 89.8245 62.8631 95.7615 65.9365C95.8314 65.9365 96.1806 66.146 96.5299 66.2857Z" fill="url(#paint0_linear_3119_191)"/>
<defs>
<linearGradient id="paint0_linear_3119_191" x1="14.297" y1="14.5815" x2="84.6699" y2="84.9544" gradientUnits="userSpaceOnUse">
<stop stop-color="#0DE0FD"/>
<stop offset="0.1762" stop-color="#08C1EC"/>
<stop offset="0.3624" stop-color="#05A8DE"/>
<stop offset="0.5569" stop-color="#0296D4"/>
<stop offset="0.7629" stop-color="#018BCE"/>
<stop offset="1" stop-color="#0088CC"/>
</linearGradient>
</defs>
</svg>
