<svg width="58" height="32" viewBox="0 0 58 32" fill="none" xmlns="http://www.w3.org/2000/svg">
<path d="M2.63557 31.942C2.09712 31.942 1.5716 31.7754 1.12971 31.4648C0.687817 31.1541 0.350753 30.7142 0.163863 30.2043C-0.0230278 29.6944 -0.0507791 29.139 0.0843422 28.6127C0.219464 28.0864 0.510975 27.6145 0.91966 27.2605L17.5253 12.8886C18.5363 12.0212 19.8329 11.5686 21.1586 11.6204C22.4843 11.6721 23.7425 12.2245 24.6841 13.1681L31.7455 20.2955L53.6095 0.669884C54.1338 0.201191 54.821 -0.0380027 55.52 0.00492163C56.219 0.047846 56.8724 0.369372 57.3366 0.89877C57.8008 1.42817 58.0376 2.12207 57.9951 2.82782C57.9526 3.53358 57.6342 4.19338 57.1099 4.66207L35.2327 24.285C34.2279 25.1872 32.9198 25.6677 31.5758 25.6281C30.2318 25.5885 28.9536 25.0319 28.0026 24.0721L20.9492 16.9367L4.34358 31.3086C3.86676 31.7178 3.26132 31.9423 2.63557 31.942Z" fill="white"/>
<path d="M55.3583 15.971C54.6576 15.971 53.9856 15.6906 53.4902 15.1914C52.9948 14.6922 52.7164 14.0151 52.7164 13.3092V5.32367H42.1491C41.4485 5.32367 40.7765 5.04323 40.2811 4.54404C39.7857 4.04485 39.5073 3.3678 39.5073 2.66184C39.5073 1.95587 39.7857 1.27883 40.2811 0.779634C40.7765 0.280443 41.4485 0 42.1491 0H55.3583C56.0589 0 56.7309 0.280443 57.2263 0.779634C57.7217 1.27883 58.0001 1.95587 58.0001 2.66184V13.3092C58.0001 14.0151 57.7217 14.6922 57.2263 15.1914C56.7309 15.6906 56.0589 15.971 55.3583 15.971Z" fill="white"/>
</svg>
