<svg width="58" height="32" viewBox="0 0 58 32" fill="none" xmlns="http://www.w3.org/2000/svg">
<path d="M2.63557 0.000350952C2.09712 0.000400543 1.5716 0.166964 1.12971 0.477629C0.687817 0.788294 0.350753 1.22816 0.163863 1.73805C-0.0230278 2.24794 -0.0507791 2.80339 0.0843422 3.32969C0.219464 3.85598 0.510975 4.32787 0.91966 4.68186L17.5253 19.0537C18.5363 19.9211 19.8329 20.3737 21.1586 20.322C22.4843 20.2702 23.7425 19.7179 24.6841 18.7743L31.7455 11.6469L53.6095 31.2725C54.1338 31.7412 54.821 31.9804 55.52 31.9375C56.219 31.8945 56.8724 31.573 57.3366 31.0436C57.8008 30.5142 58.0376 29.8203 57.9951 29.1146C57.9526 28.4088 57.6342 27.749 57.1099 27.2803L35.2327 7.65737C34.2279 6.75516 32.9198 6.2747 31.5758 6.31428C30.2318 6.35386 28.9536 6.91049 28.0026 7.87029L20.9492 15.0057L4.34358 0.633781C3.86676 0.224617 3.26132 8.39233e-05 2.63557 0.000350952Z" fill="white"/>
<path d="M55.3583 15.9714C54.6576 15.9714 53.9856 16.2518 53.4902 16.751C52.9948 17.2502 52.7164 17.9272 52.7164 18.6332V26.6187H42.1491C41.4485 26.6187 40.7765 26.8992 40.2811 27.3983C39.7857 27.8975 39.5073 28.5746 39.5073 29.2805C39.5073 29.9865 39.7857 30.6636 40.2811 31.1627C40.7765 31.6619 41.4485 31.9424 42.1491 31.9424H55.3583C56.0589 31.9424 56.7309 31.6619 57.2263 31.1627C57.7217 30.6636 58.0001 29.9865 58.0001 29.2805V18.6332C58.0001 17.9272 57.7217 17.2502 57.2263 16.751C56.7309 16.2518 56.0589 15.9714 55.3583 15.9714Z" fill="white"/>
</svg>
