<svg width="38" height="37" viewBox="0 0 38 37" fill="none" xmlns="http://www.w3.org/2000/svg">
<path d="M30.6496 24.6996C31.0781 24.5196 31.355 24.1589 31.4217 23.6986C31.4886 23.2383 31.2571 22.8378 30.8984 22.5364L23.0557 15.9457L36.9592 2.82882C37.4308 2.38436 37.5514 1.61461 37.1896 1.06962C37.1149 0.957178 37.0262 0.858847 36.927 0.775517C36.5461 0.455417 36.0057 0.367534 35.5321 0.571116L7.1895 12.7637C6.76435 12.9466 6.42765 13.3829 6.36282 13.8417C6.29823 14.3005 6.42406 14.8242 6.78137 15.1244L14.5206 21.6282L1.17866 34.2835C0.710696 34.7278 0.670777 35.3987 1.02975 35.9417C1.10341 36.0533 1.19618 36.1448 1.29431 36.2272C1.67444 36.5467 2.21014 36.6402 2.6839 36.4411L30.6496 24.6996Z" fill="#4BA2FF"/>
</svg>
