<svg width="53" height="68" viewBox="0 0 53 68" fill="none" xmlns="http://www.w3.org/2000/svg">
<path fill-rule="evenodd" clip-rule="evenodd" d="M42.407 28.3603L42.4057 28.3632C45.1694 31.8417 46.8211 36.2474 46.8211 41.0394C46.8211 45.9026 45.12 50.3682 42.2818 53.8703L42.0375 54.1718L41.9727 53.7886C41.9174 53.4627 41.8528 53.1336 41.7776 52.802C40.3571 46.5373 35.7292 41.1654 28.1124 36.8158C22.9688 33.8866 20.0246 30.3594 19.2516 26.3521C18.7524 23.7607 19.1236 21.1578 19.8408 18.9284C20.5579 16.6997 21.6245 14.8324 22.5307 13.7082L25.4943 10.0706C26.0139 9.43281 26.9863 9.43281 27.506 10.0706L42.407 28.3603ZM47.0936 24.7266L27.2341 0.349071C26.855 -0.116357 26.145 -0.116357 25.7659 0.349071L5.90575 24.7255L5.84168 24.8074C2.18704 29.3596 0 35.1448 0 41.4425C0 56.1095 11.8642 68 26.5 68C41.1359 68 53 56.1095 53 41.4425C53 35.1448 50.813 29.3596 47.1585 24.8074L47.0936 24.7266ZM10.6577 28.2817L12.4349 26.1003L12.4885 26.5027C12.5311 26.8217 12.5826 27.1422 12.6438 27.4641C13.7932 33.5176 17.899 38.565 24.7637 42.4743C30.7307 45.8834 34.2049 49.8034 35.2059 54.1028C35.6235 55.8971 35.6981 57.6623 35.5171 59.2057L35.506 59.3013L35.4199 59.3435C32.7267 60.6642 29.6993 61.4054 26.4993 61.4054C15.2764 61.4054 6.17783 52.2876 6.17783 41.0394C6.17783 36.2101 7.8551 31.7727 10.6577 28.2817Z" fill="#4BA2FF"/>
</svg>
