<svg width="39" height="40" viewBox="0 0 39 40" fill="none" xmlns="http://www.w3.org/2000/svg">
<path d="M38.8475 26.676C36.9079 32.1574 32.7196 36.3739 27.5474 38.5102C25.1862 39.4659 22.6283 40 19.9859 40C17.9339 40 15.9382 39.6908 14.0548 39.1005H14.0267C5.90302 36.7393 0 29.4589 0 20.1265V20.0141C0 19.6767 0 19.3394 0.0281096 19.0021C0.0281096 18.8335 0.0562193 18.6648 0.0562193 18.4961C0.590302 11.2439 4.75053 5.20028 10.9346 2.19255C10.9346 2.19255 10.9628 2.16444 10.9909 2.16444C13.6894 0.787069 16.7533 0 19.9859 0C21.532 0 23.0499 0.168658 24.5397 0.534083C28.8686 1.54603 32.7758 3.96346 35.5868 7.50527L26.0014 15.2073C25.5517 15.0668 25.0738 14.9543 24.624 14.8138C24.0618 14.6451 23.5278 14.4765 22.9656 14.3078C22.4596 14.1673 21.9817 14.0267 21.4758 13.858C20.8855 13.6894 20.2952 13.5207 19.733 13.3521C19.227 13.2115 18.721 13.071 18.215 12.9304C17.428 12.7056 16.6128 12.4526 15.8257 12.2277C15.2916 12.059 14.7576 11.9466 14.2235 11.7779C13.4926 11.5531 12.7337 11.3282 12.0028 11.1314C11.272 10.9346 10.5692 11.0471 10.3162 11.6655C10.1476 12.0871 10.1195 12.5369 10.2319 12.9866C10.5411 13.9705 10.8503 14.9824 11.1595 15.9663C11.5249 17.1469 11.8342 18.3556 12.1996 19.5362C12.5369 20.6325 12.9023 21.7569 13.2396 22.8531C13.577 23.9494 13.858 25.0457 14.1954 26.142C14.4483 26.929 14.7013 27.7442 14.9543 28.5313C15.2635 29.5994 15.5727 30.6957 15.91 31.7639C16.0506 32.2136 16.163 32.6634 16.4722 33.0569C16.922 33.5629 17.3999 33.6191 17.9621 33.3661C18.5524 33.1131 19.0021 32.6353 19.4519 32.2417C20.1546 31.5952 20.8855 30.9768 21.6163 30.3584C22.4596 29.6275 23.3029 28.8967 24.1462 28.1377C24.2305 28.0815 24.2586 28.0534 24.3148 28.0534C24.3992 28.0534 24.4554 28.1096 24.4835 28.1377C25.6641 29.0654 26.8447 29.993 28.0253 30.9487C28.0253 30.9487 28.3064 31.2017 28.8124 31.1736C28.8405 31.1736 28.8686 31.1736 28.8686 31.1455C28.8967 31.1174 28.8967 31.0611 28.8967 31.0611C28.4469 28.1096 28.2221 26.6479 28.2221 26.6479C28.2221 26.5636 27.9972 25.1862 27.9972 25.1019C27.9691 24.9332 27.8848 24.8208 27.7442 24.6803C27.2663 24.3148 26.7885 23.9775 26.3387 23.6121C25.5517 23.0218 24.371 22.0661 22.9093 20.9979C21.2509 19.7611 15.6008 15.8257 15.4041 15.2916C15.3197 15.0668 15.4041 14.9543 15.4041 14.9543C15.4041 14.9543 15.4603 14.8981 15.5727 14.87C16.0787 14.7857 21.0541 17.5123 21.2509 17.6247C21.532 17.7934 21.8974 17.9902 22.3753 18.215C22.7969 18.4399 23.3029 18.6929 23.9213 19.0021C24.0337 19.0583 24.1181 19.1145 24.2305 19.1427L26.8728 20.52C27.6318 20.9136 28.4188 21.3071 29.1778 21.7006L31.3985 22.8531C33.7597 24.09 36.149 25.2987 38.5383 26.5355C38.5664 26.5355 38.707 26.6198 38.8475 26.676Z" fill="url(#paint0_linear_254_914)"/>
<defs>
<linearGradient id="paint0_linear_254_914" x1="5.7537" y1="5.86819" x2="34.0746" y2="34.1891" gradientUnits="userSpaceOnUse">
<stop stop-color="#0DE0FD"/>
<stop offset="0.1762" stop-color="#08C1EC"/>
<stop offset="0.3624" stop-color="#05A8DE"/>
<stop offset="0.5569" stop-color="#0296D4"/>
<stop offset="0.7629" stop-color="#018BCE"/>
<stop offset="1" stop-color="#0088CC"/>
</linearGradient>
</defs>
</svg>
